<mxfile host="app.diagrams.net" agent="Mozilla/5.0 (Macintosh; Intel Mac OS X 10_15_7) AppleWebKit/537.36 (KHTML, like Gecko) Chrome/127.0.0.0 Safari/537.36" version="24.7.7">
  <diagram name="第 1 页" id="RPNNd0t_XWJfNYnWHV2W">
    <mxGraphModel dx="775" dy="430" grid="1" gridSize="10" guides="1" tooltips="1" connect="1" arrows="1" fold="1" page="1" pageScale="1" pageWidth="827" pageHeight="1169" math="0" shadow="0">
      <root>
        <mxCell id="0" />
        <mxCell id="1" parent="0" />
        <mxCell id="L-xr58H3ONyju9xF1Wd7-1" value="" style="endArrow=classic;html=1;rounded=1;sketch=1;curveFitting=1;jiggle=2;labelBackgroundColor=none;fontColor=default;" edge="1" parent="1">
          <mxGeometry width="50" height="50" relative="1" as="geometry">
            <mxPoint x="140" y="380" as="sourcePoint" />
            <mxPoint x="780" y="380" as="targetPoint" />
          </mxGeometry>
        </mxCell>
        <mxCell id="L-xr58H3ONyju9xF1Wd7-3" value="6月1日" style="text;html=1;align=center;verticalAlign=middle;resizable=0;points=[];autosize=1;strokeColor=none;fillColor=none;fontFamily=Architects Daughter;fontSource=https%3A%2F%2Ffonts.googleapis.com%2Fcss%3Ffamily%3DArchitects%2BDaughter;rotation=-30;" vertex="1" parent="1">
          <mxGeometry x="120" y="380" width="60" height="30" as="geometry" />
        </mxCell>
        <mxCell id="L-xr58H3ONyju9xF1Wd7-5" value="&lt;font style=&quot;font-size: 10px;&quot;&gt;配合师兄制作调整网络配置生成数据集&lt;/font&gt;" style="whiteSpace=wrap;html=1;rounded=1;sketch=1;hachureGap=4;jiggle=2;curveFitting=1;fontFamily=Architects Daughter;fontSource=https%3A%2F%2Ffonts.googleapis.com%2Fcss%3Ffamily%3DArchitects%2BDaughter;" vertex="1" parent="1">
          <mxGeometry x="140" y="330" width="100" height="40" as="geometry" />
        </mxCell>
        <mxCell id="L-xr58H3ONyju9xF1Wd7-7" value="&lt;span style=&quot;font-size: 10px;&quot;&gt;调研网络意图冲突检测、&lt;/span&gt;&lt;span style=&quot;font-size: 10px;&quot;&gt;调研P4网络配置&lt;/span&gt;&lt;span style=&quot;font-size: 10px;&quot;&gt;相关的研究&lt;/span&gt;" style="whiteSpace=wrap;html=1;rounded=1;sketch=1;hachureGap=4;jiggle=2;curveFitting=1;fontFamily=Architects Daughter;fontSource=https%3A%2F%2Ffonts.googleapis.com%2Fcss%3Ffamily%3DArchitects%2BDaughter;" vertex="1" parent="1">
          <mxGeometry x="250" y="330" width="130" height="40" as="geometry" />
        </mxCell>
        <mxCell id="L-xr58H3ONyju9xF1Wd7-9" value="7月1日" style="text;html=1;align=center;verticalAlign=middle;resizable=0;points=[];autosize=1;strokeColor=none;fillColor=none;fontFamily=Architects Daughter;fontSource=https%3A%2F%2Ffonts.googleapis.com%2Fcss%3Ffamily%3DArchitects%2BDaughter;rotation=-30;" vertex="1" parent="1">
          <mxGeometry x="360" y="380" width="60" height="30" as="geometry" />
        </mxCell>
        <mxCell id="L-xr58H3ONyju9xF1Wd7-10" value="&lt;span style=&quot;font-size: 10px;&quot;&gt;调研意图驱动的VNF链配置寻找可深入研究的点&lt;/span&gt;" style="whiteSpace=wrap;html=1;rounded=1;sketch=1;hachureGap=4;jiggle=2;curveFitting=1;fontFamily=Architects Daughter;fontSource=https%3A%2F%2Ffonts.googleapis.com%2Fcss%3Ffamily%3DArchitects%2BDaughter;" vertex="1" parent="1">
          <mxGeometry x="390" y="330" width="120" height="40" as="geometry" />
        </mxCell>
        <mxCell id="L-xr58H3ONyju9xF1Wd7-11" value="8月1日" style="text;html=1;align=center;verticalAlign=middle;resizable=0;points=[];autosize=1;strokeColor=none;fillColor=none;fontFamily=Architects Daughter;fontSource=https%3A%2F%2Ffonts.googleapis.com%2Fcss%3Ffamily%3DArchitects%2BDaughter;rotation=-30;" vertex="1" parent="1">
          <mxGeometry x="610" y="380" width="60" height="30" as="geometry" />
        </mxCell>
        <mxCell id="L-xr58H3ONyju9xF1Wd7-12" value="&lt;span style=&quot;font-size: 10px;&quot;&gt;确定并实施工作重点：&lt;/span&gt;&lt;div&gt;&lt;span style=&quot;font-size: 10px;&quot;&gt;&lt;br&gt;&lt;/span&gt;&lt;/div&gt;" style="whiteSpace=wrap;html=1;rounded=1;sketch=1;hachureGap=4;jiggle=2;curveFitting=1;fontFamily=Architects Daughter;fontSource=https%3A%2F%2Ffonts.googleapis.com%2Fcss%3Ffamily%3DArchitects%2BDaughter;" vertex="1" parent="1">
          <mxGeometry x="520" y="330" width="120" height="40" as="geometry" />
        </mxCell>
        <mxCell id="L-xr58H3ONyju9xF1Wd7-13" value="&lt;div&gt;&lt;span style=&quot;font-size: 10px;&quot;&gt;复现已有的意图冲突检测工作：PGA和Janus算法&lt;/span&gt;&lt;/div&gt;" style="whiteSpace=wrap;html=1;rounded=1;sketch=1;hachureGap=4;jiggle=2;curveFitting=1;fontFamily=Architects Daughter;fontSource=https%3A%2F%2Ffonts.googleapis.com%2Fcss%3Ffamily%3DArchitects%2BDaughter;" vertex="1" parent="1">
          <mxGeometry x="650" y="330" width="120" height="40" as="geometry" />
        </mxCell>
        <mxCell id="L-xr58H3ONyju9xF1Wd7-14" value="8月20日" style="text;html=1;align=center;verticalAlign=middle;resizable=0;points=[];autosize=1;strokeColor=none;fillColor=none;fontFamily=Architects Daughter;fontSource=https%3A%2F%2Ffonts.googleapis.com%2Fcss%3Ffamily%3DArchitects%2BDaughter;rotation=-30;" vertex="1" parent="1">
          <mxGeometry x="745" y="380" width="70" height="30" as="geometry" />
        </mxCell>
      </root>
    </mxGraphModel>
  </diagram>
</mxfile>
